<svg width="25.000000" height="25.000000" viewBox="0 0 25 25" fill="none" xmlns="http://www.w3.org/2000/svg" xmlns:xlink="http://www.w3.org/1999/xlink">
	<desc>
			Created with Pixso.
	</desc>
	<defs>
		<clipPath id="clip88_1165">
			<rect id="11244080_x_twitter_elon musk_twitter new logo_icon 1" rx="0.000000" width="24.000000" height="24.000000" transform="translate(0.500000 0.500000)" fill="white" fill-opacity="0"/>
		</clipPath>
	</defs>
	<rect id="11244080_x_twitter_elon musk_twitter new logo_icon 1" rx="0.000000" width="24.000000" height="24.000000" transform="translate(0.500000 0.500000)" fill="#FFFFFF" fill-opacity="0"/>
	<g clip-path="url(#clip88_1165)">
		<mask id="mask88_1167" mask-type="alpha" maskUnits="userSpaceOnUse" x="0.000000" y="0.000000" width="25.000000" height="25.000000">
			<path id="Vector" d="M0 0L25 0L25 25L0 25L0 0Z" fill="#000000" fill-opacity="1.000000" fill-rule="evenodd"/>
		</mask>
		<g mask="url(#mask88_1167)">
			<path id="Vector" d="M14.87 10.58L24.18 0L21.97 0L13.89 9.18L7.44 0L0 0L9.76 13.89L0 24.98L2.2 24.98L10.73 15.28L17.55 24.98L25 24.98L14.87 10.58L14.87 10.58ZM11.85 14.01L10.86 12.63L3 1.62L6.38 1.62L12.73 10.5L13.72 11.89L21.98 23.43L18.59 23.43L11.85 14.01L11.85 14.01Z" fill="#FFFFFF" fill-opacity="1.000000" fill-rule="nonzero"/>
		</g>
	</g>
</svg>
