<svg width="31.000000" height="23.000000" viewBox="0 0 31 23" fill="none" xmlns="http://www.w3.org/2000/svg" xmlns:xlink="http://www.w3.org/1999/xlink">
	<desc>
			Created with Pixso.
	</desc>
	<defs>
		<clipPath id="clip88_1173">
			<rect id="1820429_brand_logo_network_social_youtube_icon 1" rx="0.000000" width="30.000000" height="22.000000" transform="translate(0.500000 0.500000)" fill="white" fill-opacity="0"/>
		</clipPath>
	</defs>
	<rect id="1820429_brand_logo_network_social_youtube_icon 1" rx="0.000000" width="30.000000" height="22.000000" transform="translate(0.500000 0.500000)" fill="#FFFFFF" fill-opacity="0"/>
	<g clip-path="url(#clip88_1173)">
		<path id="Vector" d="M24.83 0L6.16 0C2.76 0 0 2.8 0 6.24L0 16.75C0 20.19 2.76 23 6.16 23L24.83 23C28.23 23 31 20.19 31 16.75L31 6.24C31 2.8 28.23 0 24.83 0ZM29.73 16.75C29.73 19.49 27.53 21.72 24.83 21.72L6.16 21.72C3.46 21.72 1.26 19.49 1.26 16.75L1.26 6.24C1.26 3.5 3.46 1.27 6.16 1.27L24.83 1.27C27.53 1.27 29.73 3.5 29.73 6.24L29.73 16.75Z" fill="#FFFFFF" fill-opacity="1.000000" fill-rule="nonzero"/>
		<path id="Vector" d="M21.1 11.26L12.33 6.08C12.14 5.96 11.9 5.96 11.7 6.08C11.5 6.19 11.38 6.4 11.38 6.63L11.38 17C11.38 17.23 11.5 17.44 11.7 17.55C11.8 17.61 11.91 17.64 12.02 17.64C12.13 17.64 12.24 17.61 12.33 17.55L21.1 12.37C21.29 12.25 21.41 12.04 21.41 11.82C21.41 11.59 21.29 11.38 21.1 11.26ZM12.65 15.88L12.65 7.75L19.53 11.82L12.65 15.88Z" fill="#FFFFFF" fill-opacity="1.000000" fill-rule="nonzero"/>
	</g>
</svg>
