<svg width="31.000000" height="31.000000" viewBox="0 0 31 31" fill="none" xmlns="http://www.w3.org/2000/svg" xmlns:xlink="http://www.w3.org/1999/xlink">
	<desc>
			Created with Pixso.
	</desc>
	<defs>
		<clipPath id="clip88_1183">
			<rect id="9024634_instagram_logo_light_icon 1" rx="0.000000" width="30.000000" height="30.000000" transform="translate(0.500000 0.500000)" fill="white" fill-opacity="0"/>
		</clipPath>
	</defs>
	<rect id="9024634_instagram_logo_light_icon 1" rx="0.000000" width="30.000000" height="30.000000" transform="translate(0.500000 0.500000)" fill="#FFFFFF" fill-opacity="0"/>
	<g clip-path="url(#clip88_1183)">
		<path id="Vector" d="M15.5 20.34C12.82 20.34 10.65 18.17 10.65 15.5C10.65 12.82 12.82 10.65 15.5 10.65C18.17 10.65 20.34 12.82 20.34 15.5C20.34 18.17 18.17 20.34 15.5 20.34Z" stroke="#FFFFFF" stroke-opacity="1.000000" stroke-width="1.000000" stroke-linejoin="round"/>
		<path id="Vector" d="M20.82 4.35C24.03 4.35 26.64 6.96 26.64 10.17L26.64 20.82C26.64 24.03 24.03 26.64 20.82 26.64L10.17 26.64C6.96 26.64 4.35 24.03 4.35 20.82L4.35 10.17C4.35 6.96 6.96 4.35 10.17 4.35L20.82 4.35Z" stroke="#FFFFFF" stroke-opacity="1.000000" stroke-width="1.000000" stroke-linejoin="round"/>
		<path id="Vector" d="M23 9.2C23 9.87 22.46 10.41 21.79 10.41C21.12 10.41 20.58 9.87 20.58 9.2C20.58 8.53 21.12 7.99 21.79 7.99C22.46 7.99 23 8.53 23 9.2Z" fill="#FFFFFF" fill-opacity="1.000000" fill-rule="evenodd"/>
	</g>
</svg>
